<?xml version="1.0" encoding="utf-8"?>
<!-- Generator: Adobe Illustrator 27.5.0, SVG Export Plug-In . SVG Version: 6.00 Build 0)  -->
<svg version="1.1" xmlns="http://www.w3.org/2000/svg" xmlns:xlink="http://www.w3.org/1999/xlink" x="0px" y="0px"
	 viewBox="0 0 500 500" style="enable-background:new 0 0 500 500;" xml:space="preserve">

<g id="OBJECTS">
	<path style="fill:#f0f7ff;" d="M130.893,364.064c0,0-98.735-43.217-93.781-101.374c4.954-58.157,38.104-74.467,44.813-121.441
		c6.709-46.974,24.808-107.92,84.621-88.831s108.794,14.235,157.624,8.139c48.831-6.097,141.675-8.314,131.643,90.38
		c-10.032,98.695,9.947,188.895-115.905,213.128S130.893,364.064,130.893,364.064z"/>
	<g>
		<g>
			
				<rect x="116.769" y="80.446" style="fill:#C9BFB1;stroke:#F0EBD6;stroke-width:1.1054;stroke-miterlimit:10;" width="223.032" height="186.853"/>
			<g>
				<rect x="116.769" y="85.145" style="fill:#FFF6E7;" width="223.032" height="7.071"/>
				<rect x="116.769" y="96.459" style="fill:#FFF6E7;" width="223.032" height="7.071"/>
				<rect x="116.769" y="107.772" style="fill:#FFF6E7;" width="223.032" height="7.071"/>
				<rect x="116.769" y="119.085" style="fill:#FFF6E7;" width="223.032" height="7.071"/>
				<rect x="116.769" y="130.399" style="fill:#FFF6E7;" width="223.032" height="7.071"/>
				<rect x="116.769" y="141.712" style="fill:#FFF6E7;" width="223.032" height="7.071"/>
				<rect x="116.769" y="153.026" style="fill:#FFF6E7;" width="223.032" height="7.071"/>
			</g>
		</g>
		<polygon style="fill:#2563eb;" points="117.474,266.829 117.474,210.577 135.061,210.577 135.061,231.611 152.885,231.611 
			152.885,178.363 181.27,178.363 181.27,207.827 200.414,207.827 200.414,256.198 220.878,256.198 220.878,191.653 
			238.702,191.653 238.702,218.878 257.185,218.878 257.185,243.936 279.63,243.936 279.63,175.31 313.296,175.31 313.296,238.89 
			329.139,238.89 329.139,266.829 		"/>
	</g>
	<g>
		<g>
			<g>
				<path style="fill:#647761;" d="M122.957,350.404c0,0,17.356,5.261,23.376-20.484
					C135.409,339.491,122.957,350.404,122.957,350.404z"/>
				<path style="fill:#647761;" d="M122.957,350.404c0,0-2.937-17.896,23.376-20.484
					C135.409,339.491,122.957,350.404,122.957,350.404z"/>
				<g>
					<path style="fill:#3B5B32;" d="M122.957,350.404c1.143-1.364,2.371-2.631,3.63-3.863c1.253-1.238,2.557-2.418,3.872-3.587
						c1.33-1.15,2.671-2.288,4.063-3.368c1.386-1.086,2.804-2.138,4.307-3.09c-1.142,1.366-2.37,2.633-3.629,3.864
						c-1.254,1.238-2.558,2.418-3.873,3.586c-1.331,1.149-2.672,2.287-4.065,3.367C125.876,348.398,124.459,349.45,122.957,350.404z
						"/>
				</g>
			</g>
			<g>
				<path style="fill:#647761;" d="M122.336,350.846c0,0-11.204-14.261-30.896,3.382
					C105.877,352.648,122.336,350.846,122.336,350.846z"/>
				<path style="fill:#647761;" d="M122.336,350.846c0,0-7.854,16.347-30.896,3.382
					C105.877,352.648,122.336,350.846,122.336,350.846z"/>
				<g>
					<path style="fill:#3B5B32;" d="M122.336,350.846c-1.718,0.463-3.451,0.796-5.189,1.084c-1.737,0.296-3.482,0.515-5.229,0.72
						c-1.75,0.18-3.501,0.343-5.26,0.43c-1.759,0.095-3.523,0.144-5.301,0.062c1.718-0.464,3.451-0.798,5.189-1.086
						c1.737-0.296,3.482-0.515,5.229-0.718c1.75-0.178,3.501-0.342,5.261-0.428C118.794,350.816,120.558,350.766,122.336,350.846z"
						/>
				</g>
			</g>
			<g>
				<path style="fill:#647761;" d="M104.309,312.041c0,0-6.864-16.786-30.639-5.22C87.987,309.26,104.309,312.041,104.309,312.041z"
					/>
				<path style="fill:#647761;" d="M104.309,312.041c0,0-12.035,13.567-30.639-5.22C87.987,309.26,104.309,312.041,104.309,312.041z
					"/>
				<g>
					<path style="fill:#3B5B32;" d="M104.309,312.041c-1.779-0.026-3.537-0.181-5.287-0.381c-1.751-0.192-3.49-0.459-5.226-0.742
						c-1.732-0.307-3.461-0.63-5.177-1.029c-1.717-0.391-3.427-0.827-5.115-1.394c1.78,0.025,3.537,0.179,5.287,0.379
						c1.751,0.192,3.49,0.46,5.225,0.744c1.732,0.308,3.46,0.631,5.176,1.03C100.911,311.041,102.621,311.477,104.309,312.041z"/>
				</g>
			</g>
			<g>
				<path style="fill:#647761;" d="M104.953,311.116c0,0,17.356,5.261,23.376-20.484
					C117.405,300.204,104.953,311.116,104.953,311.116z"/>
				<path style="fill:#647761;" d="M104.953,311.116c0,0-2.937-17.896,23.376-20.484
					C117.405,300.204,104.953,311.116,104.953,311.116z"/>
				<g>
					<path style="fill:#3B5B32;" d="M104.953,311.116c1.143-1.364,2.371-2.631,3.63-3.863c1.253-1.238,2.557-2.418,3.871-3.587
						c1.33-1.15,2.672-2.288,4.063-3.368c1.386-1.086,2.804-2.137,4.307-3.09c-1.142,1.366-2.37,2.633-3.629,3.864
						c-1.254,1.238-2.558,2.418-3.873,3.586c-1.331,1.149-2.673,2.287-4.065,3.367C107.872,309.111,106.455,310.163,104.953,311.116
						z"/>
				</g>
			</g>
			<g>
				<path style="fill:#647761;" d="M113.958,333.32c0,0,17.356,5.261,23.376-20.484C126.41,322.408,113.958,333.32,113.958,333.32z"
					/>
				<path style="fill:#647761;" d="M113.958,333.32c0,0-2.937-17.896,23.376-20.484C126.41,322.408,113.958,333.32,113.958,333.32z"
					/>
				<g>
					<path style="fill:#3B5B32;" d="M113.958,333.32c1.143-1.364,2.371-2.631,3.63-3.863c1.253-1.238,2.558-2.418,3.872-3.587
						c1.33-1.15,2.671-2.288,4.063-3.368c1.386-1.086,2.804-2.137,4.307-3.09c-1.142,1.366-2.37,2.633-3.629,3.864
						c-1.254,1.238-2.558,2.418-3.873,3.586c-1.331,1.149-2.673,2.287-4.065,3.367C116.877,331.315,115.46,332.366,113.958,333.32z"
						/>
				</g>
			</g>
			<g>
				<path style="fill:#647761;" d="M112.915,333.505c0,0-8.376-16.085-30.989-2.385C96.407,332.235,112.915,333.505,112.915,333.505
					z"/>
				<path style="fill:#647761;" d="M112.915,333.505c0,0-10.739,14.614-30.989-2.385
					C96.407,332.235,112.915,333.505,112.915,333.505z"/>
				<g>
					<path style="fill:#3B5B32;" d="M112.915,333.505c-1.774,0.137-3.539,0.145-5.3,0.106c-1.761-0.03-3.517-0.137-5.272-0.259
						c-1.753-0.146-3.504-0.309-5.249-0.549c-1.746-0.231-3.489-0.509-5.221-0.918c1.775-0.139,3.539-0.147,5.3-0.108
						c1.762,0.03,3.517,0.137,5.271,0.261c1.753,0.148,3.504,0.311,5.249,0.551C109.44,332.821,111.183,333.098,112.915,333.505z"/>
				</g>
			</g>
			<path style="fill:#475644;" d="M145.248,386.556c0,0-38.778-44.465-48.364-101.75c2.046,0,2.046,0,2.046,0
				s7.997,56,49.379,97.829C150.476,388.299,145.248,386.556,145.248,386.556z"/>
			<g>
				<path style="fill:#647761;" d="M99.718,294.915c0,0,12.68-12.966-7.377-30.193C95.789,278.831,99.718,294.915,99.718,294.915z"
					/>
				<path style="fill:#647761;" d="M99.718,294.915c0,0-17.23-5.658-7.377-30.193C95.789,278.831,99.718,294.915,99.718,294.915z"/>
				<g>
					<path style="fill:#3B5B32;" d="M99.718,294.915c-0.683-1.644-1.239-3.318-1.75-5.004c-0.52-1.683-0.964-3.385-1.395-5.091
						c-0.406-1.711-0.796-3.426-1.112-5.159c-0.323-1.731-0.601-3.474-0.752-5.247c0.684,1.643,1.241,3.318,1.752,5.003
						c0.519,1.684,0.964,3.385,1.393,5.091c0.405,1.712,0.795,3.427,1.11,5.16C99.287,291.399,99.566,293.141,99.718,294.915z"/>
				</g>
			</g>
		</g>
		<g>
			<g>
				<path style="fill:#475644;" d="M136.077,407.088c0,0-16.799,9.704-37.065-1.096c-20.266-10.8-36.561-15.179-50.869-10.752
					c-14.308,4.427-4.546-41.145,42.14-27.562c46.685,13.583,53.349,29.265,53.349,29.265L136.077,407.088z"/>
				<path style="fill:none;stroke:#242D21;stroke-width:0.6503;stroke-miterlimit:10;" d="M50.035,382.202
					c0,0,28.287-20.551,80.761,16.394"/>
				<path style="fill:none;stroke:#242D21;stroke-width:0.6503;stroke-miterlimit:10;" d="M60.374,391.533
					c0,0,4.142-11.755,21.043-14.46"/>
				<path style="fill:none;stroke:#29593E;stroke-width:0.6503;stroke-miterlimit:10;" d="M93.334,379.613
					c0,0-5.388-6.229-12.432-12.12"/>
				<path style="fill:none;stroke:#242D21;stroke-width:0.6503;stroke-miterlimit:10;" d="M110.709,386.504
					c0,0-14.729-0.331-26.399,9.387"/>
				<path style="fill:none;stroke:#29593E;stroke-width:0.6503;stroke-miterlimit:10;" d="M122.908,393.353
					c0,0-2.607-9.349-9.968-15.822"/>
			</g>
			<g>
				<path style="fill:#92A68F;" d="M134.975,394.611c0,0-20.11,5.471-38.196-11.306c-18.086-16.776-33.81-25.794-49.885-25.12
					c-16.075,0.674,6.564-43.981,51.328-17.068c44.763,26.913,47.383,45.029,47.383,45.029L134.975,394.611z"/>
				<path style="fill:none;stroke:#22351B;stroke-width:0.6596;stroke-miterlimit:10;" d="M52.436,345.162
					c0,0,35.017-13.586,79.384,39.179"/>
				<path style="fill:none;stroke:#22351B;stroke-width:0.6596;stroke-miterlimit:10;" d="M60.615,357.689
					c0,0,7.526-11.073,25.823-9.246"/>
				<path style="fill:none;stroke:#22351B;stroke-width:0.6596;stroke-miterlimit:10;" d="M98.117,354.35
					c0,0-3.888-7.947-9.588-15.998"/>
				<path style="fill:none;stroke:#22351B;stroke-width:0.6596;stroke-miterlimit:10;" d="M114.274,366.273
					c0,0-15.207-4.384-29.994,2.508"/>
				<path style="fill:none;stroke:#22351B;stroke-width:0.6596;stroke-miterlimit:10;" d="M125.065,376.732
					c0,0-0.144-10.425-6.014-19.167"/>
			</g>
		</g>
	</g>
	<g>
		<g>
			<g>
				<path style="fill:#647761;" d="M390.876,352.004c0,0-17.356,5.261-23.376-20.484
					C378.424,341.092,390.876,352.004,390.876,352.004z"/>
				<path style="fill:#647761;" d="M390.876,352.004c0,0,2.937-17.896-23.376-20.484
					C378.424,341.092,390.876,352.004,390.876,352.004z"/>
				<g>
					<path style="fill:#3B5B32;" d="M390.876,352.004c-1.503-0.954-2.919-2.005-4.306-3.092c-1.392-1.08-2.733-2.218-4.064-3.367
						c-1.315-1.168-2.619-2.348-3.873-3.586c-1.259-1.232-2.487-2.499-3.629-3.864c1.504,0.952,2.921,2.004,4.307,3.09
						c1.392,1.08,2.733,2.218,4.063,3.368c1.314,1.169,2.618,2.349,3.872,3.587C388.505,349.374,389.733,350.64,390.876,352.004z"/>
				</g>
			</g>
			<g>
				<path style="fill:#647761;" d="M391.497,352.447c0,0,11.204-14.261,30.896,3.382
					C407.956,354.249,391.497,352.447,391.497,352.447z"/>
				<path style="fill:#647761;" d="M391.497,352.447c0,0,7.854,16.347,30.896,3.382
					C407.956,354.249,391.497,352.447,391.497,352.447z"/>
				<g>
					<path style="fill:#3B5B32;" d="M391.497,352.447c1.778-0.08,3.542-0.031,5.3,0.064c1.76,0.087,3.511,0.25,5.261,0.428
						c1.747,0.203,3.492,0.422,5.229,0.718c1.738,0.287,3.47,0.621,5.189,1.086c-1.778,0.082-3.542,0.033-5.301-0.062
						c-1.76-0.087-3.511-0.25-5.26-0.43c-1.747-0.204-3.492-0.424-5.229-0.72C394.948,353.243,393.216,352.91,391.497,352.447z"/>
				</g>
			</g>
			<g>
				<path style="fill:#647761;" d="M409.524,313.642c0,0,6.864-16.786,30.639-5.22C425.846,310.861,409.524,313.642,409.524,313.642
					z"/>
				<path style="fill:#647761;" d="M409.524,313.642c0,0,12.035,13.567,30.639-5.22
					C425.846,310.861,409.524,313.642,409.524,313.642z"/>
				<g>
					<path style="fill:#3B5B32;" d="M409.524,313.642c1.688-0.564,3.398-1.001,5.115-1.392c1.716-0.399,3.445-0.722,5.176-1.03
						c1.736-0.284,3.474-0.552,5.225-0.744c1.75-0.2,3.508-0.354,5.287-0.379c-1.688,0.566-3.397,1.003-5.115,1.393
						c-1.716,0.399-3.445,0.722-5.177,1.029c-1.736,0.282-3.474,0.55-5.226,0.742C413.061,313.461,411.304,313.616,409.524,313.642z
						"/>
				</g>
			</g>
			<g>
				<path style="fill:#647761;" d="M408.88,312.717c0,0-17.356,5.261-23.376-20.484C396.427,301.805,408.88,312.717,408.88,312.717z
					"/>
				<path style="fill:#647761;" d="M408.88,312.717c0,0,2.937-17.896-23.376-20.484C396.427,301.805,408.88,312.717,408.88,312.717z
					"/>
				<g>
					<path style="fill:#3B5B32;" d="M408.88,312.717c-1.503-0.954-2.919-2.005-4.306-3.092c-1.392-1.08-2.733-2.218-4.065-3.367
						c-1.315-1.168-2.619-2.348-3.873-3.586c-1.259-1.232-2.487-2.499-3.629-3.864c1.504,0.952,2.921,2.004,4.307,3.09
						c1.392,1.08,2.733,2.218,4.063,3.368c1.314,1.169,2.618,2.349,3.872,3.587C406.509,310.087,407.737,311.353,408.88,312.717z"/>
				</g>
			</g>
			<g>
				<path style="fill:#647761;" d="M399.875,334.921c0,0-17.356,5.261-23.376-20.484
					C387.423,324.009,399.875,334.921,399.875,334.921z"/>
				<path style="fill:#647761;" d="M399.875,334.921c0,0,2.937-17.896-23.376-20.484
					C387.423,324.009,399.875,334.921,399.875,334.921z"/>
				<g>
					<path style="fill:#3B5B32;" d="M399.875,334.921c-1.503-0.954-2.919-2.005-4.306-3.092c-1.392-1.08-2.733-2.218-4.065-3.367
						c-1.315-1.168-2.619-2.348-3.873-3.586c-1.259-1.232-2.487-2.499-3.629-3.864c1.504,0.952,2.921,2.004,4.307,3.09
						c1.392,1.08,2.733,2.218,4.063,3.368c1.314,1.169,2.618,2.349,3.871,3.587C397.504,332.29,398.733,333.557,399.875,334.921z"/>
				</g>
			</g>
			<g>
				<path style="fill:#647761;" d="M400.918,335.106c0,0,8.376-16.085,30.989-2.385
					C417.426,333.836,400.918,335.106,400.918,335.106z"/>
				<path style="fill:#647761;" d="M400.918,335.106c0,0,10.739,14.614,30.989-2.385
					C417.426,333.836,400.918,335.106,400.918,335.106z"/>
				<g>
					<path style="fill:#3B5B32;" d="M400.918,335.106c1.733-0.407,3.475-0.684,5.221-0.916c1.745-0.24,3.497-0.403,5.249-0.551
						c1.754-0.123,3.51-0.23,5.271-0.261c1.761-0.039,3.525-0.031,5.3,0.108c-1.732,0.409-3.475,0.687-5.221,0.918
						c-1.745,0.24-3.497,0.402-5.249,0.549c-1.755,0.122-3.51,0.229-5.272,0.259C404.457,335.25,402.692,335.243,400.918,335.106z"
						/>
				</g>
			</g>
			<path style="fill:#475644;" d="M368.585,388.157c0,0,38.779-44.465,48.364-101.75c-2.046,0-2.046,0-2.046,0
				s-7.997,56-49.379,97.829C363.357,389.9,368.585,388.157,368.585,388.157z"/>
			<g>
				<path style="fill:#647761;" d="M414.115,296.516c0,0-12.68-12.966,7.377-30.193
					C418.044,280.431,414.115,296.516,414.115,296.516z"/>
				<path style="fill:#647761;" d="M414.115,296.516c0,0,17.23-5.658,7.377-30.193C418.044,280.431,414.115,296.516,414.115,296.516
					z"/>
				<g>
					<path style="fill:#3B5B32;" d="M414.115,296.516c0.152-1.773,0.431-3.516,0.754-5.247c0.315-1.733,0.705-3.448,1.11-5.16
						c0.429-1.706,0.873-3.408,1.393-5.091c0.511-1.685,1.068-3.36,1.752-5.003c-0.151,1.773-0.429,3.516-0.752,5.247
						c-0.315,1.733-0.706,3.448-1.112,5.16c-0.43,1.705-0.875,3.407-1.395,5.09C415.353,293.197,414.797,294.872,414.115,296.516z"
						/>
				</g>
			</g>
		</g>
		<g>
			<g>
				<path style="fill:#475644;" d="M377.756,408.689c0,0,16.799,9.704,37.065-1.096c20.265-10.8,36.561-15.179,50.869-10.752
					c14.308,4.427,4.546-41.145-42.14-27.562c-46.685,13.583-53.349,29.265-53.349,29.265L377.756,408.689z"/>
				<path style="fill:none;stroke:#242D21;stroke-width:0.6503;stroke-miterlimit:10;" d="M463.798,383.803
					c0,0-28.287-20.551-80.761,16.394"/>
				<path style="fill:none;stroke:#242D21;stroke-width:0.6503;stroke-miterlimit:10;" d="M453.459,393.134
					c0,0-4.142-11.755-21.043-14.46"/>
				<path style="fill:none;stroke:#29593E;stroke-width:0.6503;stroke-miterlimit:10;" d="M420.499,381.214
					c0,0,5.388-6.229,12.432-12.12"/>
				<path style="fill:none;stroke:#242D21;stroke-width:0.6503;stroke-miterlimit:10;" d="M403.123,388.105
					c0,0,14.729-0.331,26.4,9.387"/>
				<path style="fill:none;stroke:#29593E;stroke-width:0.6503;stroke-miterlimit:10;" d="M390.925,394.954
					c0,0,2.607-9.349,9.968-15.822"/>
			</g>
			<g>
				<path style="fill:#92A68F;" d="M378.858,396.212c0,0,20.11,5.471,38.196-11.306c18.086-16.776,33.81-25.794,49.885-25.12
					c16.075,0.674-6.565-43.981-51.328-17.068c-44.763,26.913-47.383,45.029-47.383,45.029L378.858,396.212z"/>
				<path style="fill:none;stroke:#22351B;stroke-width:0.6596;stroke-miterlimit:10;" d="M461.397,346.763
					c0,0-35.017-13.586-79.384,39.179"/>
				<path style="fill:none;stroke:#22351B;stroke-width:0.6596;stroke-miterlimit:10;" d="M453.218,359.29
					c0,0-7.526-11.073-25.822-9.246"/>
				<path style="fill:none;stroke:#22351B;stroke-width:0.6596;stroke-miterlimit:10;" d="M415.716,355.951
					c0,0,3.888-7.947,9.588-15.998"/>
				<path style="fill:none;stroke:#22351B;stroke-width:0.6596;stroke-miterlimit:10;" d="M399.559,367.874
					c0,0,15.207-4.384,29.994,2.508"/>
				<path style="fill:none;stroke:#22351B;stroke-width:0.6596;stroke-miterlimit:10;" d="M388.768,378.333
					c0,0,0.144-10.425,6.014-19.167"/>
			</g>
		</g>
	</g>
	<g>
		<circle style="fill:#E87552;" cx="60.28" cy="264.901" r="7.843"/>
		<circle style="fill:#E87552;" cx="368.663" cy="145.512" r="9.841"/>
		<circle style="fill:#92A68F;" cx="390.38" cy="99.304" r="16.486"/>
		<circle style="fill:#92A68F;" cx="88.989" cy="202.563" r="7.843"/>
		<path style="fill:#FFFFFF;" d="M84.441,247.868c0,2.778-2.252,5.03-5.03,5.03c-2.778,0-5.03-2.252-5.03-5.03
			c0-2.778,2.252-5.03,5.03-5.03C82.189,242.838,84.441,245.09,84.441,247.868z"/>
		<path style="fill:#FFFFFF;" d="M406.111,143.14c0,2.371-1.922,4.294-4.293,4.294c-2.371,0-4.294-1.922-4.294-4.294
			c0-2.371,1.922-4.294,4.294-4.294C404.189,138.847,406.111,140.769,406.111,143.14z"/>
		<path style="fill:#FFFFFF;" d="M150.082,63.996c0,2.071-1.679,3.749-3.749,3.749c-2.071,0-3.749-1.679-3.749-3.749
			s1.679-3.749,3.749-3.749C148.403,60.247,150.082,61.925,150.082,63.996z"/>
	</g>
	<g>
		<path style="fill:#475644;" d="M151.822,188.878c0,0,23.79,3.148,35.601,7.891c11.812,4.743,8.722,81.239,8.722,81.239
			l-41.753-13.545L151.822,188.878z"/>
		<path style="fill:#92A68F;" d="M137.562,330.24l-2.686-125.907c-0.176-8.269,6.28-15.168,14.543-15.539l0,0
			c8.102-0.364,15.068,5.686,15.842,13.759l12.253,127.687H137.562z"/>
		<path style="opacity:0.42;fill:#475644;" d="M171.742,270.092l24.403,7.917c0,0,0.003-0.084,0.009-0.24l-15.921-76.019
			c0,0-12.906,11.684-18.943,19.305c-6.036,7.621-5.174,43.792-3.449,64.944c0.99,12.14,4.866,30.661,7.99,44.242h11.682
			L171.742,270.092z"/>
		<path style="fill:#633222;" d="M282.616,292.682c0,0,10.992,0.67,16.328,2.61c5.336,1.94,5.497,4.527,2.102,4.204
			c-3.396-0.323-14.714-0.571-14.714-0.571L282.616,292.682z"/>
		<path style="fill:#633222;" d="M278.463,282.034c0,0,3.665,4.312,4.635,6.252c0.97,1.94-2.695,2.695-3.881,1.401
			c-1.186-1.294-6.899-6.468-7.977-7.007C270.163,282.142,278.463,282.034,278.463,282.034z"/>
		<path style="fill:#7A422B;" d="M230.872,281.226c0,0,17.139-3.395,25.709-5.012c8.57-1.617,14.552-0.97,20.535,2.102
			c5.983,3.072,9.863,5.983,9.216,7.761c-0.647,1.779-5.066,0.27-7.33-1.024c-2.264-1.293-6.09-1.24-8.354-1.078
			c-2.264,0.162-1.455,1.51,0.485,3.261c1.94,1.751,3.072,4.823,0.485,4.985c-2.587,0.162-10.116-4.527-12.981-5.012
			c-2.865-0.485-15.8,3.396-24.693,8.57C225.051,300.952,230.872,281.226,230.872,281.226z"/>
		<path style="fill:#633222;" d="M270.648,310.33c0,0,3.881-2.264,10.672-1.779c6.791,0.485,9.055,0.162,8.408-1.779
			c-0.647-1.94-8.731-4.851-8.731-4.851S272.588,306.934,270.648,310.33z"/>
		<path style="fill:#D35F44;" d="M190.363,191.152c0,0-14.441,12.329-21.976,29.282c-7.221,15.384,4.709,109.573,4.709,109.573
			l65.315,0.943c0,0-3.779-51.177-1.581-57.456c2.198-6.279,9.088-8.163,4.395-28.884s-23.124-38.521-23.124-38.521L190.363,191.152
			z"/>
		<path style="opacity:0.69;fill:#933F2E;" d="M238.411,330.95c0,0-0.658-8.915-1.265-19.759c-5.98-0.132-15.828-1.078-21.634-5.535
			c-8.756-6.721-13.924-47.498-13.924-47.498l-35.501-19.329c-0.454,32.246,7.009,91.177,7.009,91.177L238.411,330.95z"/>
		<path style="fill:#FFF6E7;" d="M192.247,269.413c2.198-1.256,20.408-9.419,13.5-36.733c-4.48-17.716-20.708-21.956-31.565-22.751
			c-2.116,3.22-4.127,6.749-5.797,10.507c-2.583,5.503-2.715,21.093-1.82,38.846C177.89,264.427,191.017,270.116,192.247,269.413z"
			/>
		<path style="fill:#7A422B;" d="M166.623,227.361c0.511-2.749,1.837-5.321,3.972-7.127c2.642-2.235,7.05-4.038,14.115-2.311
			c14.131,3.454,17.27,33.908,17.584,55.257c0.314,21.349,1.864,24.489,1.864,24.489s18.823,2.512,35.794,0.942
			s35.495-5.651,41.46-5.965c5.965-0.314,15.07,7.221,15.698,11.617c0.628,4.395-3.14,1.884-5.337,0
			c-2.198-1.884-7.221-3.768-11.93,0.314c-4.71,4.081-14.442,11.303-23.861,10.675c-9.419-0.628-8.791,0-19.152,3.454
			c-10.361,3.454-38.532,13.756-49.406,12.058c-10.874-1.697-8.947-14.284-14.328-34.036
			C167.899,277.652,162.684,248.553,166.623,227.361z"/>
		<path style="fill:none;stroke:#1D1D1B;stroke-width:0.5834;stroke-miterlimit:10;" d="M204.158,297.669
			c0,0-7.516-0.314-12.539,1.256"/>
		<path style="fill:#FFF6E7;" d="M190.363,191.152c0,0,7.828,27.085,23.694,31.48c11.785,3.453,4.044-16.544,4.044-16.544
			L190.363,191.152z"/>
		<path style="fill:#7A422B;" d="M191.784,165.694c0,0,3.151,16.619-1.422,25.458c17.375,12.498,27.738,14.936,27.738,14.936
			s-6.706-14.326-7.011-28.348C210.785,163.719,191.784,165.694,191.784,165.694z"/>
		<path style="fill:#492315;" d="M196.146,165.661c1.965,7.447,6.665,20.097,16.462,23.801c-0.823-3.706-1.431-7.726-1.518-11.721
			C210.88,168.068,201.775,166.008,196.146,165.661z"/>
		<path style="fill:#FFF6E7;" d="M225.537,233.311c0,1.488-1.207,2.695-2.695,2.695c-1.488,0-2.695-1.206-2.695-2.695
			c0-1.488,1.206-2.695,2.695-2.695C224.33,230.617,225.537,231.823,225.537,233.311z"/>
		<circle style="fill:#FFF6E7;" cx="227.064" cy="251.587" r="2.695"/>
		<path style="fill:#FFF6E7;" d="M224.15,272.549c-1.483-0.121-2.588-1.421-2.467-2.905c0.121-1.483,1.421-2.588,2.905-2.467
			c1.483,0.121,2.588,1.421,2.467,2.905C226.934,271.566,225.634,272.67,224.15,272.549z"/>
		<path style="fill:#FFF6E7;" d="M224.15,295.368c-1.483-0.121-2.588-1.421-2.467-2.905c0.121-1.483,1.421-2.588,2.905-2.467
			c1.483,0.121,2.588,1.421,2.467,2.905C226.934,294.385,225.634,295.489,224.15,295.368z"/>
		<path style="fill:#2C1C16;" d="M251.432,124.548c0-4.549-2.653-8.468-6.49-10.326c0.119-0.662,0.191-1.34,0.191-2.037
			c0-6.34-5.14-11.48-11.48-11.48c-1.498,0-2.924,0.295-4.236,0.817c-0.884-5.461-5.608-9.635-11.318-9.635
			c-3.377,0-6.403,1.467-8.504,3.788c-2.455-2.341-5.771-3.788-9.432-3.788c-7.175,0-13.049,5.527-13.623,12.554
			c-1.565-0.686-3.291-1.074-5.109-1.074c-7.035,0-12.737,5.703-12.737,12.737c0,2.396,0.674,4.63,1.825,6.544
			c-4.66,1.461-8.041,5.813-8.041,10.955c0,5.218,3.484,9.616,8.251,11.011c-1.743,2.013-2.806,4.633-2.806,7.505
			c0,5.902,4.456,10.759,10.186,11.402c1.931,3.62,5.742,6.086,10.132,6.086c6.34,0,11.48-5.14,11.48-11.48
			c0-2.168-0.606-4.193-1.65-5.922c5.822-0.996,18.792-3.474,24.747-6.675c2.08,2.096,4.961,3.396,8.148,3.396
			c6.34,0,11.48-5.14,11.48-11.48c0-0.566-0.055-1.118-0.134-1.663C247.519,134.695,251.432,130.079,251.432,124.548z"/>
		<path style="fill:#2C1C16;" d="M251.432,124.548c0-4.549-2.653-8.468-6.49-10.326c0.119-0.662,0.191-1.34,0.191-2.037
			c0-6.34-5.14-11.48-11.48-11.48c-1.498,0-2.924,0.295-4.236,0.817c-0.884-5.461-5.608-9.635-11.318-9.635
			c-3.377,0-6.403,1.467-8.504,3.788c-2.455-2.341-5.771-3.788-9.432-3.788c-7.175,0-13.049,5.527-13.623,12.554
			c-1.565-0.686-3.291-1.074-5.109-1.074c-7.035,0-12.737,5.703-12.737,12.737c0,2.396,0.674,4.63,1.825,6.544
			c-4.66,1.461-8.041,5.813-8.041,10.955c0,5.218,3.484,9.616,8.251,11.011c-1.743,2.013-2.806,4.633-2.806,7.505
			c0,5.902,4.456,10.759,10.186,11.402c1.931,3.62,5.742,6.086,10.132,6.086c6.34,0,11.48-5.14,11.48-11.48
			c0-2.168-0.606-4.193-1.65-5.922c5.822-0.996,18.792-3.474,24.747-6.675c2.08,2.096,4.961,3.396,8.148,3.396
			c6.34,0,11.48-5.14,11.48-11.48c0-0.566-0.055-1.118-0.134-1.663C247.519,134.695,251.432,130.079,251.432,124.548z"/>
		<path style="fill:#442217;" d="M251.432,124.548c0-4.549-2.653-8.468-6.49-10.326c0.119-0.662,0.191-1.34,0.191-2.037
			c0-6.34-5.14-11.48-11.48-11.48c-1.498,0-2.924,0.295-4.236,0.817c-0.839-5.182-5.137-9.199-10.454-9.596
			c-5.629,1.374-9.892,6.221-10.376,12.15c-1.565-0.687-3.291-1.074-5.109-1.074c-7.035,0-12.737,5.703-12.737,12.737
			c0,2.396,0.674,4.63,1.824,6.544c-4.66,1.461-8.041,5.813-8.041,10.955c0,5.218,3.484,9.616,8.251,11.011
			c-1.744,2.013-2.806,4.633-2.806,7.505c0,5.384,3.712,9.886,8.712,11.126c0.661-1.45,1.04-3.056,1.04-4.754
			c0-2.168-0.606-4.193-1.65-5.922c5.822-0.996,18.792-3.474,24.747-6.675c2.08,2.096,4.961,3.396,8.148,3.396
			c6.34,0,11.48-5.14,11.48-11.48c0-0.566-0.055-1.118-0.134-1.663C247.519,134.695,251.432,130.079,251.432,124.548z"/>
		<circle style="fill:none;stroke:#E87552;stroke-width:0.9791;stroke-miterlimit:10;" cx="228.681" cy="169.452" r="9.909"/>
		<path style="fill:#7A422B;" d="M231.513,132.018c0,0,2.134,7.62,2.134,17.679c0,10.059-0.305,16.155,0,21.337
			c0.305,5.182-9.754,10.669-14.631,11.888c-4.877,1.219-27.738-6.096-28.348-22.861c-0.305-10.669-0.305-10.669-0.305-10.669
			s2.743,0,4.572-7.316c4.572-0.915,5.487-6.096,5.487-7.925c5.487,1.219,10.98-0.305,11.586-2.134
			c3.959,3.048,10.97,2.439,12.189,0C227.855,133.847,231.513,132.018,231.513,132.018z"/>
		<path style="fill:none;stroke:#442217;stroke-width:0.7343;stroke-miterlimit:10;" d="M224.89,154.46c0,0,1.132,5.012,2.587,6.953
			c1.455,1.94-0.97,4.204-6.629,2.749"/>
		<path style="fill:#FFF6E7;" d="M225.537,169.174c0,0-7.357,0-11.897-1.225c-0.38-0.103-0.618,0.384-0.309,0.628
			c4.616,3.64,10.234,3.493,11.56,3.346L225.537,169.174z"/>
		<g>
			<path style="fill:#2C1C16;" d="M215.512,153.652c-1.989-0.656-3.703-1.212-5.499-1.661c-0.895-0.21-1.789-0.439-2.72-0.608
				c-0.93-0.214-1.881-0.345-2.916-0.641c0.925-0.518,1.948-0.807,2.99-0.897c1.044-0.114,2.104,0.003,3.126,0.249
				c1.024,0.247,1.998,0.693,2.872,1.274C214.227,151.961,215.024,152.691,215.512,153.652z"/>
		</g>
		<g>
			<path style="fill:#2C1C16;" d="M228.285,154.137c0.022-0.667,0.288-1.211,0.618-1.691c0.341-0.472,0.783-0.863,1.29-1.155
				c0.999-0.57,2.348-0.785,3.451-0.064c-0.496,0.457-0.911,0.719-1.305,1.019c-0.395,0.278-0.778,0.513-1.176,0.745
				c-0.398,0.228-0.816,0.435-1.277,0.632C229.417,153.815,228.929,153.999,228.285,154.137z"/>
		</g>
		<path style="fill:none;stroke:#2C1C16;stroke-width:0.9791;stroke-linecap:round;stroke-miterlimit:10;" d="M214.057,140.555
			c0,0-6.629-1.617-10.348,1.779"/>
		<path style="fill:none;stroke:#2C1C16;stroke-width:0.9791;stroke-linecap:round;stroke-miterlimit:10;" d="M228.285,140.878
			c0,0,3.604-0.162,5.359,1.455"/>
		<path style="opacity:0.38;fill:#D35F44;" d="M209.944,158.503c0,1.786-2.59,3.234-5.786,3.234c-3.195,0-5.786-1.448-5.786-3.234
			c0-1.786,2.59-3.234,5.786-3.234C207.354,155.269,209.944,156.717,209.944,158.503z"/>
		<path style="opacity:0.38;fill:#D35F44;" d="M230.004,158.503c0,1.34,1.459,2.49,3.537,2.98c0.022-1.806,0.051-3.782,0.074-5.976
			C231.498,155.988,230.004,157.147,230.004,158.503z"/>
		
			<ellipse transform="matrix(0.9209 -0.3897 0.3897 0.9209 -45.9706 84.7728)" style="fill:#7A422B;" cx="185.922" cy="155.673" rx="7.276" ry="8.004"/>
		<path style="fill:#592C1D;" d="M180.378,153.211c-0.673,0.285-1.275,0.671-1.802,1.134c-0.131,1.355,0.063,2.787,0.646,4.164
			c1.723,4.071,6.119,6.101,9.82,4.535c0.673-0.285,1.275-0.671,1.802-1.134c0.131-1.355-0.063-2.787-0.646-4.164
			C188.475,153.675,184.078,151.645,180.378,153.211z"/>
		<path style="fill:none;stroke:#E87552;stroke-width:0.9791;stroke-miterlimit:10;" d="M187.423,159.543
			c5.473,0,9.909,4.436,9.909,9.909c0,5.473-4.436,9.909-9.909,9.909c-5.472,0-9.909-4.436-9.909-9.909
			c0-3.201,1.518-6.048,3.874-7.859"/>
		<path style="fill:#D35F44;" d="M244.357,298.284c0,0-0.926,18.351,4.248,24.603c5.174,6.252,3.875-7.824,3.875-7.824l2.575,0.128
			c0,0,1.095,12.008-4.726,12.008c-5.821,0-9.508-15.521-8.419-28.78c0.442-3.989,6.91-4.03,7.125-0.776
			C244.357,298.284,244.357,298.284,244.357,298.284z"/>
		
			<line style="fill:none;stroke:#FFF6E7;stroke-width:0.9791;stroke-miterlimit:10;" x1="222.842" y1="233.311" x2="237.385" y2="233.311"/>
		
			<line style="fill:none;stroke:#FFF6E7;stroke-width:0.9791;stroke-miterlimit:10;" x1="227.064" y1="251.587" x2="242.828" y2="251.587"/>
		
			<line style="fill:none;stroke:#FFF6E7;stroke-width:0.9791;stroke-miterlimit:10;" x1="224.369" y1="269.863" x2="238.59" y2="269.863"/>
		
			<line style="fill:none;stroke:#FFF6E7;stroke-width:0.9791;stroke-miterlimit:10;" x1="224.369" y1="292.682" x2="236.307" y2="292.682"/>
	</g>
	<g>
		<rect x="267.792" y="322.241" style="fill:#647761;" width="64.676" height="6.899"/>
		<rect x="271.78" y="320.193" style="fill:#7B9177;" width="6.036" height="2.048"/>
		<rect x="278.787" y="320.193" style="fill:#7B9177;" width="6.036" height="2.048"/>
		<rect x="285.793" y="320.193" style="fill:#7B9177;" width="6.036" height="2.048"/>
		<rect x="292.8" y="320.193" style="fill:#7B9177;" width="6.036" height="2.048"/>
		<rect x="299.806" y="320.193" style="fill:#7B9177;" width="6.036" height="2.048"/>
		<rect x="306.813" y="320.193" style="fill:#7B9177;" width="6.036" height="2.048"/>
		<rect x="313.819" y="320.193" style="fill:#7B9177;" width="6.036" height="2.048"/>
		<rect x="320.826" y="320.193" style="fill:#7B9177;" width="6.036" height="2.048"/>
	</g>
	<path style="fill:#D35F44;" d="M298.259,317.603c0,0,1.417-10.242,8.663-8.032C314.168,311.782,301.322,313.076,298.259,317.603z"
		/>
	<path style="fill:#FFF6E7;" d="M301.497,308.257c0,0,4.08-8.021,9.411-4.14C316.239,307.997,305.305,305.405,301.497,308.257z"/>
	<g>
		<g>
			<rect x="140.235" y="271.374" style="fill:#FFF6E7;" width="2.867" height="27.241"/>
			<path style="fill:#A34731;" d="M144.508,279.498h-4.273v-10.069c0-1.18,0.956-2.137,2.137-2.137l0,0
				c1.18,0,2.137,0.957,2.137,2.137V279.498z"/>
			<path style="fill:#A34731;" d="M144.508,279.498v4.993c0,1.37-0.5,2.692-1.406,3.72l0,0v-8.713H144.508z"/>
		</g>
		<g>
			
				<rect x="132.507" y="271.217" transform="matrix(-0.9842 0.1773 -0.1773 -0.9842 316.2696 541.4082)" style="fill:#FFF6E7;" width="2.867" height="27.241"/>
			<path style="fill:#92A68F;" d="M130.171,279.932l4.205-0.758l-1.786-9.909c-0.209-1.161-1.32-1.933-2.482-1.724l0,0
				c-1.161,0.209-1.933,1.32-1.724,2.482L130.171,279.932z"/>
			<path style="fill:#92A68F;" d="M130.171,279.932l0.885,4.914c0.243,1.348,0.969,2.561,2.043,3.412l0,0l-1.545-8.575
				L130.171,279.932z"/>
		</g>
		<g>
			<rect x="124.056" y="295.696" style="fill:#A34731;" width="25.688" height="33.335"/>
			<g>
				<rect x="124.056" y="295.696" style="fill:#E87552;" width="11.451" height="33.335"/>
				<path style="fill:#A34731;" d="M122.191,290.055h29.418c1.558,0,2.821,1.263,2.821,2.821l0,0c0,1.558-1.263,2.821-2.821,2.821
					h-29.418c-1.558,0-2.821-1.263-2.821-2.821l0,0C119.37,291.318,120.633,290.055,122.191,290.055z"/>
				<path style="fill:#E87552;" d="M128.645,292.875c0-1.558,1.263-2.821,2.821-2.821h-9.274c-1.558,0-2.821,1.263-2.821,2.821
					c0,1.558,1.263,2.821,2.821,2.821h9.274C129.908,295.696,128.645,294.433,128.645,292.875z"/>
				<rect x="124.056" y="295.696" style="fill:#A34731;" width="25.688" height="4.295"/>
			</g>
		</g>
	</g>
	<g>
		<g>
			<rect x="351.012" y="262.955" style="fill:#92A68F;" width="20.503" height="66.185"/>
			<rect x="351.012" y="262.955" style="fill:#475644;" width="20.503" height="23.228"/>
			<polygon style="fill:#475644;" points="431.779,174.388 318.221,174.388 294.183,275.354 407.741,275.354 			"/>
			<polygon style="fill:#92A68F;" points="423.751,174.388 310.193,174.388 286.155,275.354 399.713,275.354 			"/>
			<polygon style="fill:#FFF6E7;stroke:#7B9177;stroke-width:0.8005;stroke-miterlimit:10;" points="416.107,179.361 
				314.546,179.361 293.766,266.643 395.327,266.643 			"/>
			<polygon style="fill:#E2D8C9;" points="374.423,184.076 320.269,184.076 309.188,230.617 363.343,230.617 			"/>
			<polygon style="fill:#BAAFA0;" points="349.53,190.356 321.12,190.356 315.308,214.771 343.717,214.771 			"/>
			<polygon style="fill:#D35F44;" points="397.887,234.82 367.523,234.82 361.31,260.916 391.675,260.916 			"/>
			<polygon style="fill:#E87552;" points="316.406,234.82 309.112,234.82 302.899,260.916 310.193,260.916 			"/>
			<polygon style="fill:#92A68F;" points="327.941,234.82 320.647,234.82 314.434,260.916 321.728,260.916 			"/>
			<polygon style="fill:#475644;" points="339.476,234.82 332.183,234.82 325.97,260.916 333.264,260.916 			"/>
			<polygon style="fill:#D35F44;" points="351.012,234.82 343.718,234.82 337.505,260.916 344.799,260.916 			"/>
			<polygon style="fill:#647761;" points="362.547,234.82 355.253,234.82 349.041,260.916 356.334,260.916 			"/>
			
				<line style="fill:none;stroke:#7B9177;stroke-width:0.2393;stroke-miterlimit:10;" x1="379.599" y1="184.076" x2="409.686" y2="184.076"/>
			
				<line style="fill:none;stroke:#7B9177;stroke-width:0.2393;stroke-miterlimit:10;" x1="377.982" y1="189.462" x2="408.069" y2="189.462"/>
			
				<line style="fill:none;stroke:#7B9177;stroke-width:0.2393;stroke-miterlimit:10;" x1="376.688" y1="194.847" x2="406.776" y2="194.847"/>
			
				<line style="fill:none;stroke:#7B9177;stroke-width:0.2393;stroke-miterlimit:10;" x1="375.233" y1="200.233" x2="405.321" y2="200.233"/>
			
				<line style="fill:none;stroke:#7B9177;stroke-width:0.2393;stroke-miterlimit:10;" x1="373.778" y1="205.619" x2="403.865" y2="205.619"/>
			
				<line style="fill:none;stroke:#7B9177;stroke-width:0.2393;stroke-miterlimit:10;" x1="372.161" y1="211.005" x2="402.248" y2="211.005"/>
			
				<line style="fill:none;stroke:#7B9177;stroke-width:0.2393;stroke-miterlimit:10;" x1="370.706" y1="216.39" x2="400.793" y2="216.39"/>
			
				<line style="fill:none;stroke:#7B9177;stroke-width:0.2393;stroke-miterlimit:10;" x1="369.089" y1="221.776" x2="399.176" y2="221.776"/>
			
				<line style="fill:none;stroke:#7B9177;stroke-width:0.2393;stroke-miterlimit:10;" x1="367.8" y1="227.162" x2="397.887" y2="227.162"/>
			
				<line style="fill:none;stroke:#92A68F;stroke-width:0.9791;stroke-miterlimit:10;" x1="402.572" y1="275.354" x2="426.502" y2="174.388"/>
			<path style="fill:#7B9177;" d="M344.365,324.307h27.15v4.888h-32.038l0,0C339.476,326.495,341.665,324.307,344.365,324.307z"/>
			<polygon style="fill:#92A68F;" points="319.207,188.536 373.361,188.536 374.423,184.076 320.269,184.076 			"/>
			<path style="fill:#FFF6E7;" d="M323.505,186.34c0,0.64-0.519,1.159-1.159,1.159c-0.64,0-1.159-0.519-1.159-1.159
				s0.519-1.159,1.159-1.159C322.986,185.182,323.505,185.7,323.505,186.34z"/>
			<circle style="fill:#E87552;" cx="325.97" cy="186.34" r="1.159"/>
			<path style="fill:#475644;" d="M330.839,186.34c0,0.64-0.519,1.159-1.159,1.159c-0.64,0-1.159-0.519-1.159-1.159
				s0.519-1.159,1.159-1.159C330.32,185.182,330.839,185.7,330.839,186.34z"/>
			
				<line style="fill:none;stroke:#BAAFA0;stroke-width:0.9791;stroke-miterlimit:10;" x1="315.744" y1="217.681" x2="363.317" y2="217.681"/>
			
				<line style="fill:none;stroke:#BAAFA0;stroke-width:0.9791;stroke-miterlimit:10;" x1="314.327" y1="221.776" x2="361.9" y2="221.776"/>
			
				<line style="fill:none;stroke:#BAAFA0;stroke-width:0.9791;stroke-miterlimit:10;" x1="313.489" y1="225.871" x2="361.062" y2="225.871"/>
		</g>
		
			<line style="fill:none;stroke:#FFF6E7;stroke-width:0.8005;stroke-miterlimit:10;" x1="367.523" y1="234.82" x2="391.675" y2="260.916"/>
		
			<line style="fill:none;stroke:#FFF6E7;stroke-width:0.8005;stroke-miterlimit:10;" x1="361.31" y1="260.916" x2="397.887" y2="234.82"/>
	</g>
	<g>
		<path style="fill:#F7C49E;" d="M411.288,343.665H103.016c-4.011,0-7.263-3.252-7.263-7.263l0,0c0-4.011,3.252-7.263,7.263-7.263
			h308.273c4.011,0,7.263,3.252,7.263,7.263l0,0C418.551,340.413,415.299,343.665,411.288,343.665z"/>
		<path style="fill:#E2AB86;" d="M244.357,336.402L244.357,336.402c0-4.011-3.252-7.263-7.263-7.263H103.016
			c-4.011,0-7.263,3.251-7.263,7.263v0c0,4.011,3.251,7.263,7.263,7.263h134.078C241.105,343.665,244.357,340.413,244.357,336.402z"
			/>
		<path style="fill:#F7C49E;" d="M129.699,455.474h249.884c5.889,0,10.662-4.774,10.662-10.662V343.61H119.037v101.202
			C119.037,450.7,123.81,455.474,129.699,455.474z"/>
		<path style="fill:#E2AB86;" d="M129.699,455.474h84.358V343.61h-95.02v101.202C119.037,450.7,123.81,455.474,129.699,455.474z"/>
		<rect x="119.037" y="343.61" style="opacity:0.67;fill:#7A422B;" width="271.208" height="11.832"/>
	</g>
</g>
</svg>
