<svg xmlns="http://www.w3.org/2000/svg" viewBox="0 0 200 250" width="200" height="250">
  <!-- Definitions for Gradients and Shadows -->
  <defs>
    <!-- Gradient for Globe Wireframe -->
    <linearGradient id="globeGradient" x1="0%" y1="0%" x2="100%" y2="100%">
      <stop offset="0%" style="stop-color:#60a5fa;stop-opacity:1" />
      <stop offset="100%" style="stop-color:#1e40af;stop-opacity:1" />
    </linearGradient>
    <!-- Gradient for Landmasses -->
    <linearGradient id="landGradient" x1="0%" y1="0%" x2="100%" y2="100%">
      <stop offset="0%" style="stop-color:#34d399;stop-opacity:1" />
      <stop offset="100%" style="stop-color:#15803d;stop-opacity:1" />
    </linearGradient>
    <!-- Shadow Filter for 3D Effect -->
    <filter id="dropShadow" x="-50%" y="-50%" width="200%" height="200%">
      <feGaussianBlur in="SourceAlpha" stdDeviation="2" />
      <feOffset dx="2" dy="2" result="offsetblur" />
      <feComponentTransfer>
        <feFuncA type="linear" slope="0.5" />
      </feComponentTransfer>
      <feMerge>
        <feMergeNode />
        <feMergeNode in="SourceGraphic" />
      </feMerge>
    </filter>
  </defs>

  <!-- Globe: Wireframe with 3D Effect -->
  <g transform="translate(100, 100) scale(0.6)">
    <!-- Base Globe -->
    <circle r="60" fill="none" stroke="url(#globeGradient)" stroke-width="1.5" opacity="0.6" />
    <!-- Vertical Lines -->
    <path d="M 0 -60 A 60 60 0 0 1 60 0 A 60 60 0 0 1 0 60 A 60 60 0 0 1 -60 0 A 60 60 0 0 1 0 -60" fill="none" stroke="url(#globeGradient)" stroke-width="1.5" opacity="0.6" />
    <!-- Horizontal Lines -->
    <path d="M -60 0 A 60 60 0 0 1 0 60 A 60 60 0 0 1 60 0 A 60 60 0 0 1 0 -60 A 60 60 0 0 1 -60 0" fill="none" stroke="url(#globeGradient)" stroke-width="1.5" opacity="0.6" />
    <!-- Diagonal Lines for Depth -->
    <circle r="60" fill="none" stroke="url(#globeGradient)" stroke-width="1.5" opacity="0.6" transform="rotate(45)" />
    <circle r="60" fill="none" stroke="url(#globeGradient)" stroke-width="1.5" opacity="0.6" transform="rotate(-45)" />
  </g>

  <!-- Globe: Simplified Landmasses with 3D Gradient -->
  <g transform="translate(100, 100) scale(0.6)">
    <path d="M -30 -20 Q -20 -30 0 -25 Q 20 -20 30 -10 Q 20 0 0 5 Q -20 10 -30 0 Z" fill="url(#landGradient)" opacity="0.8" filter="url(#dropShadow)" />
    <path d="M 10 20 Q 30 30 40 20 Q 30 10 20 15 Q 10 20 10 20 Z" fill="url(#landGradient)" opacity="0.8" filter="url(#dropShadow)" />
  </g>

  <!-- Letters: G and C with 3D Effect -->
  <!-- Top-left G (Green) -->
  <g transform="translate(50, 40) scale(1.2)">
    <path d="M 10 0 A 10 10 0 0 0 0 10 A 10 10 0 0 0 10 20 H 15 V 15 H 10 A 5 5 0 0 1 5 10 A 5 5 0 0 1 10 5 H 15 V 0 H 10 Z" fill="#22c55e" filter="url(#dropShadow)" transform="rotate(-10)" />
  </g>
  <!-- Top-right C (Blue) -->
  <g transform="translate(150, 50) scale(1.2)">
    <path d="M 10 0 A 10 10 0 0 1 0 10 A 10 10 0 0 1 10 20 H 15 V 15 H 10 A 5 5 0 0 0 5 10 A 5 5 0 0 0 10 5 H 15 V 0 H 10 Z" fill="#3b82f6" filter="url(#dropShadow)" transform="rotate(190)" />
  </g>
  <!-- Bottom-left G (Purple) -->
  <g transform="translate(60, 140) scale(1.2)">
    <path d="M 10 0 A 10 10 0 0 0 0 10 A 10 10 0 0 0 10 20 H 15 V 15 H 10 A 5 5 0 0 1 5 10 A 5 5 0 0 1 10 5 H 15 V 0 H 10 Z" fill="#a855f7" filter="url(#dropShadow)" transform="rotate(-10)" />
  </g>
  <!-- Bottom-right C (Orange) -->
  <g transform="translate(140, 130) scale(1.2)">
    <path d="M 10 0 A 10 10 0 0 1 0 10 A 10 10 0 0 1 10 20 H 15 V 15 H 10 A 5 5 0 0 0 5 10 A 5 5 0 0 0 10 5 H 15 V 0 H 10 Z" fill="#f97316" filter="url(#dropShadow)" transform="rotate(190)" />
  </g>

  <!-- Text: JobMatch -->
  <text x="100" y="200" font-family="Arial, sans-serif" font-size="20" font-weight="bold" fill="#3b82f6" text-anchor="middle" dominant-baseline="middle">JobMatch</text>

  <!-- Text: Slogan -->
  <text x="100" y="225" font-family="Arial, sans-serif" font-size="12" font-weight="normal" fill="#6b7280" text-anchor="middle" dominant-baseline="middle">Your Global Career Hub</text>
</svg>