<svg width="300" height="100" viewBox="0 0 300 100" xmlns="http://www.w3.org/2000/svg" fill="none">
  <!-- Background -->
  <rect width="300" height="100" rx="16" fill="#0F172A"/>

  <!-- Laptop -->
  <g transform="translate(30, 40)">
    <rect x="0" y="4" width="30" height="16" rx="2" fill="#38BDF8"/>
    <rect x="3" y="6" width="24" height="10" fill="#0F172A"/>
    <rect x="0" y="20" width="30" height="3" fill="#38BDF8"/>
  </g>

  <!-- Flow Line: Laptop -> Globe -->
  <path d="M65,50 C85,30 105,30 125,50" stroke="#38BDF8" stroke-width="2" fill="none" stroke-dasharray="4 2"/>

  <!-- Globe (Centerpiece) -->
  <g transform="translate(125, 30)">
    <circle cx="20" cy="20" r="20" stroke="#38BDF8" stroke-width="2"/>
    <ellipse cx="20" cy="20" rx="20" ry="7" stroke="#38BDF8" stroke-width="1.2"/>
    <line x1="20" y1="0" x2="20" y2="40" stroke="#38BDF8" stroke-width="1"/>
    <path d="M10 5 C15 20, 15 20, 10 35" stroke="#38BDF8" stroke-width="1"/>
    <path d="M30 5 C25 20, 25 20, 30 35" stroke="#38BDF8" stroke-width="1"/>
  </g>

  <!-- Flow Line: Globe -> Briefcase -->
  <path d="M165,50 C185,70 205,70 225,50" stroke="#38BDF8" stroke-width="2" fill="none" stroke-dasharray="4 2"/>

  <!-- Briefcase -->
  <g transform="translate(225, 40)">
    <rect x="0" y="5" width="30" height="18" rx="2" fill="#38BDF8"/>
    <rect x="8" y="0" width="14" height="5" fill="#38BDF8"/>
    <line x1="0" y1="11" x2="30" y2="11" stroke="#0F172A" stroke-width="1"/>
  </g>
</svg>
